<svg width="18" height="12" viewBox="0 0 18 12" fill="none" xmlns="http://www.w3.org/2000/svg">
<path fill-rule="evenodd" clip-rule="evenodd" d="M17.6667 1.66666C17.6667 1.11437 17.219 0.666656 16.6667 0.666656H15.6667C15.1144 0.666656 14.6667 1.11437 14.6667 1.66666V10.3333C14.6667 10.8856 15.1144 11.3333 15.6667 11.3333H16.6667C17.219 11.3333 17.6667 10.8856 17.6667 10.3333V1.66666ZM11 2.99999H12C12.5523 2.99999 13 3.44771 13 3.99999V10.3333C13 10.8856 12.5523 11.3333 12 11.3333H11C10.4477 11.3333 10 10.8856 10 10.3333V3.99999C10 3.44771 10.4477 2.99999 11 2.99999ZM7.33334 5.33332H6.33334C5.78105 5.33332 5.33334 5.78104 5.33334 6.33332L5.33334 10.3333C5.33334 10.8856 5.78105 11.3333 6.33334 11.3333H7.33334C7.88562 11.3333 8.33334 10.8856 8.33334 10.3333V6.33332C8.33334 5.78104 7.88562 5.33332 7.33334 5.33332ZM3.66667 8.33332C3.66667 7.78104 3.21896 7.33332 2.66667 7.33332H1.66667C1.11439 7.33332 0.666672 7.78104 0.666672 8.33332L0.666672 10.3333C0.666672 10.8856 1.11439 11.3333 1.66667 11.3333H2.66667C3.21896 11.3333 3.66667 10.8856 3.66667 10.3333V8.33332Z" fill="white"/>
</svg>
